#!OML:ASF E:/inclinewalkrobotboard/Project1/Captureday1/Session1/subject1.ASF
:FULLY-SPECIFIED
:DEGREES
313
root 0 0 0 -1.137694013300675 -2.8598617450391273 -0.8457261962381841
lowerback 10.960640508878187 0.5678106399572254 0.469755730086416
upperback -1.1542611974511532 0.8841245411282354 0.8954505426855484
thorax -7.340653473554403 0.4071711444793565 0.4314343409691066
lowerneck -13.32615502368755 -1.374033477111571 0.26454724337202223
upperneck 19.049387955913023 -1.3476855208745688 -2.412625861946878
head 8.197741401686386 -0.7865921555932343 -1.0289168317647337
rclavicle -4.640399356784568E-16 -2.92179745443426E-16
rhumerus -10.63615599309081 -5.999836188992902 -66.58195380949981
rradius 44.01810630686168
rwrist 12.546485866698735
rhand -23.982560578948966 -7.3732790600140135
rfingers 7.125020000000129
rthumb 2.720057787581977 -37.4895373726419
lclavicle -9.87109142943971E-16 -7.934283539175683E-16
lhumerus -12.025078044071613 -4.190255066728409 68.43065971061581
lradius 43.973492407409914
lwrist -5.299692068727156
lhand -33.44493265096104 -11.456724915321155
lfingers 7.125020000000128
lthumb -6.732108948879885 17.608084374753197
rfemur 13.76308252506557 7.636003897152083 37.363765686818795
rtibia 38.15097907820555
rfoot -12.671276202256742 -0.8337891752084712
rtoes 8.462446465870071
lfemur -31.078091917344885 -3.302810663141705 -11.375804375242986
ltibia 24.396657933825132
lfoot -5.918656965487808 5.232779466835742
ltoes 1.544966169980997
314
root 0 0 0 -1.1446713409059996 -2.857695573405207 -0.8534468425345936
lowerback 10.9576624869385 0.5668027353898522 0.47128317911481865
upperback -1.1445659484321418 0.8832585573658424 0.8997757001654783
thorax -7.328059052907485 0.4067894991009727 0.4350621299524177
lowerneck -13.346953142942308 -1.3829570789817383 0.2520787687334472
upperneck 19.049698781223544 -1.3617455848304598 -2.3955832544431237
head 8.20145537788812 -0.7923832845830533 -1.0224813108552109
rclavicle -4.616415720855236E-16 -2.805779531804718E-16
rhumerus -10.857872274830815 -6.14802949717984 -66.71835750377126
rradius 43.809326284808606
rwrist 12.441955883778895
rhand -23.908246573518632 -7.012805239918659
rfingers 7.12502000000013
rthumb 2.7940735030641086 -37.135234208479375
lclavicle -9.851235238708116E-16 -7.925466456541864E-16
lhumerus -12.217197287340035 -4.144732356328924 68.56728373626478
lradius 43.8191200126254
lwrist -5.193178501165272
lhand -33.37930154633487 -11.104438527838967
lfingers 7.125020000000129
lthumb -6.669557572139837 17.964580055760045
rfemur 13.092470623223125 7.30692252513794 36.96338017804428
rtibia 40.01775664788111
rfoot -11.827962524490623 -0.7363488582033639
rtoes 8.777873939035048
lfemur -26.836313994428224 -4.11430285124296 -13.554333310102983
ltibia 18.551170406175608
lfoot -8.49681303022247 6.199845928121549
ltoes 1.5463273078029225
315
root 0 0 0 -1.1535604036372678 -2.8547683271685043 -0.8631802018893483
lowerback 10.95395730756669 0.5655421423675284 0.4736174729300599
upperback -1.1322673731419546 0.8824183283477485 0.9052181096298539
thorax -7.312331842057633 0.4062758160431995 0.43978971512946935
lowerneck -13.373116465062033 -1.394202926242869 0.23634688684273303
upperneck 19.050226850347457 -1.379511760431559 -2.3740157003565376
head 8.206152302093331 -0.7997402420777552 -1.0143320903958863
rclavicle -4.610277719495006E-16 -2.661561016040388E-16
rhumerus -11.127840696721425 -6.329327626157177 -66.88427989108041
rradius 43.55414999583694
rwrist 12.314368297009972
rhand -23.81758337482434 -6.573012529194719
rfingers 7.125020000000131
rthumb 2.8848716069771525 -36.70296479601787
lclavicle -9.845707908134493E-16 -7.92270613925394E-16
lhumerus -12.412799911339542 -4.098653177731814 68.70702243070488
lradius 43.66153065434384
lwrist -5.0835505375531165
lhand -33.31239878131794 -10.743862545341162
lfingers 7.12502000000013
lthumb -6.605615438366543 18.330327409146925
rfemur 12.091312151228792 6.907918997022529 36.40782708513695
rtibia 42.18425633948135
rfoot -10.776000440488309 -0.6631357887931024
rtoes 9.136685642823545
lfemur -21.819587189758163 -4.690358536713019 -15.985701892946917
ltibia 14.190367783970423
lfoot -10.717911762987605 6.504700839934893
ltoes 1.2860498893015304
316
root 0 0 0 -1.1628676747943139 -2.8515856245541067 -0.8733274613158095
lowerback 10.950127009516132 0.5642275312010145 0.47630053309757797
upperback -1.1193825219699671 0.8816893226325959 0.9108717429024934
thorax -7.29601491547353 0.40571476837156156 0.44480784212658836
lowerneck -13.400302120687693 -1.405951921776809 0.21995737837388357
upperneck 19.050764070039545 -1.3981253773735092 -2.3514983316078677
head 8.211022645057866 -0.8074564640818125 -1.0058124852994528
rclavicle -4.621244663153424E-16 -2.5083273269619363E-16
rhumerus -11.412377596724877 -6.5205187310150015 -67.05906285397428
rradius 43.28430671912526
rwrist 12.179725943080813
rhand -23.721895152415893 -6.108308982555213
rfingers 7.1250200000001325
rthumb 2.9811766665924315 -36.245902492847
lclavicle -9.86028085287224E-16 -7.923075611587095E-16
lhumerus -12.598136821412133 -4.055091654756823 68.84005194515179
lradius 43.51169532897931
lwrist -4.978567532216036
lhand -33.24875825763116 -10.399176814458363
lfingers 7.125020000000131
lthumb -6.544643678174966 18.6780946955095
rfemur 10.644505670669673 6.4111790546558 35.637898184919386
rtibia 44.77133530395525
rfoot -9.441369512686775 -0.6245596654850729
rtoes 9.542195281992614
lfemur -16.366506530568184 -5.110685152482743 -18.538421935077416
ltibia 10.829807811761349
lfoot -12.638691803735208 6.366910653560682
ltoes 0.8937383679694193
317
root 0 0 0 -1.1713121146448808 -2.8486079754011846 -0.882551270336839
lowerback 10.946656832110651 0.5630134940006066 0.4788140038983517
upperback -1.1076234045798916 0.8810955251684157 0.9159997909771712
thorax -7.281203635673181 0.4051859815881136 0.4494269727000775
lowerneck -13.42490842959168 -1.41664990882155 0.2050688257179794
upperneck 19.05116369980782 -1.4151456513457537 -2.331053585393845
head 8.215415957402909 -0.8145050449058049 -0.9980531487929676
rclavicle -4.637907838366798E-16 -2.3614461284049296E-16
rhumerus -11.679103740799592 -6.699589903382838 -67.22284006238704
rradius 43.03097410082766
rwrist 12.053524569283997
rhand -23.632173558453346 -5.671688565626226
rfingers 7.125020000000133
rthumb 3.071810601531201 -35.81678790271644
lclavicle -9.888381385362408E-16 -7.924454937344556E-16
lhumerus -12.75815002027691 -4.017538021885236 68.95533836818248
lradius 43.381911802230334
lwrist -4.887052083420028
lhand -33.19356209769069 -10.098785223221007
lfingers 7.125020000000132
lthumb -6.491672370243287 18.97842446693495
rfemur 8.557472777224408 5.769285291843655 34.555018983438984
rtibia 47.985323795169
rfoot -7.7013629062936575 -0.6371048342126535
rtoes 10.002062010770622
lfemur -10.84146751923263 -5.40853330802185 -21.024504029870556
ltibia 8.37958075129514
lfoot -14.153658351397892 5.864770655858758
ltoes 0.4325201156993064
